<?xml version="1.0" encoding="UTF-8" standalone="no"?>
<!-- Created with Inkscape (http://www.inkscape.org/) -->

<svg
   version="1.1"
   id="svg2"
   width="3162.6667"
   height="2530.6667"
   viewBox="0 0 3162.6667 2530.6667"
   sodipodi:docname="5637c5e7-2432-45f4-8801-14bef4d01153.eps"
   xmlns:inkscape="http://www.inkscape.org/namespaces/inkscape"
   xmlns:sodipodi="http://sodipodi.sourceforge.net/DTD/sodipodi-0.dtd"
   xmlns="http://www.w3.org/2000/svg"
   xmlns:svg="http://www.w3.org/2000/svg">
  <defs
     id="defs6" />
  <sodipodi:namedview
     id="namedview4"
     pagecolor="#ffffff"
     bordercolor="#000000"
     borderopacity="0.25"
     inkscape:showpageshadow="2"
     inkscape:pageopacity="0.0"
     inkscape:pagecheckerboard="0"
     inkscape:deskcolor="#d1d1d1" />
  <g
     id="g8"
     inkscape:groupmode="layer"
     inkscape:label="ink_ext_XXXXXX"
     transform="matrix(1.3333333,0,0,-1.3333333,0,2530.6667)">
    <g
       id="g10"
       transform="scale(0.1)">
      <path
         d="M 4672.59,5434.9 C 4269.84,5181 3789.17,5136.2 3443.9,5319.3 c 69.57,59.7 175.4,78.3 259.37,41 27.99,-12.5 61.09,0.2 73.61,28.3 12.53,28.2 -0.13,61.1 -28.29,73.6 -132.45,59 -295.78,25.5 -396.97,-76.4 -26.09,25 -49.24,53.4 -67.95,83 4.04,3 7.76,6.5 11,10.7 65.75,84.6 193.71,116.2 291.43,72 28,-12.7 61.09,-0.3 73.8,27.8 12.73,28 0.28,61.1 -27.77,73.8 -130.96,59.3 -292.87,28.1 -394.96,-71.1 -1.27,7.3 -2.17,14.5 -2.63,21.5 -3.14,47.6 12.66,83.4 48.31,109.6 38.32,28.2 92.71,34.7 150.29,41.6 l 30.61,3.8 c 312.43,41.7 599.14,244.8 770.67,527.1 -33.69,15.9 -67.14,32.4 -100.29,49.3 -154.56,-249.8 -408.72,-429 -685.08,-465.8 l -29.25,-3.6 c -66.11,-8 -141.03,-17 -202.97,-62.5 -65.96,-48.4 -99.22,-121.9 -93.6,-206.8 8.93,-135.1 119.34,-293.9 256.83,-369.2 159.49,-87.4 345.16,-130.4 539.67,-130.4 269.97,0 556.82,82.9 813.51,244.7 l 815.79,543.4 c -52.76,8.9 -105.38,18.6 -157.81,28.9 l -718.63,-478.7"
         style="fill:#0f1424;fill-opacity:1;fill-rule:nonzero;stroke:none"
         id="path12" />
      <path
         d="m 15390.9,6955.5 c 20.8,-451 -169.2,-868 -484.1,-1062.4 -2.6,-1.5 -5.1,-3 -7.7,-4.5 -4.5,70.6 27.1,144.6 84.6,185.9 25,17.9 30.7,52.8 12.7,77.8 -18,25 -52.8,30.8 -77.8,12.7 -98.9,-70.9 -147.6,-199.3 -126.8,-317.6 -28.3,-6.4 -57.1,-9.8 -84.8,-10.1 -0.5,1.4 -0.9,2.7 -1.5,4 -36.6,91.1 -2.7,206.9 77.2,263.8 25.1,17.9 31,52.7 13.2,77.8 -17.9,25.1 -52.7,31 -77.8,13.1 -104.3,-74.2 -155.9,-209.1 -134,-333.6 -36,19 -55.8,47 -60.3,85.3 -5.1,43.7 14.7,90.9 35.6,140.9 l 11.1,26.7 c 100.2,248 86.4,542.5 -38,807.9 -38.3,81.7 -85.4,157.1 -139.7,224.8 -48.2,-1.5 -96.5,-2.8 -144.8,-4.1 73.5,-76.1 136,-166.6 183.5,-268 111.2,-237.4 124.2,-499.4 35.6,-718.8 l -10.6,-25.4 c -24.4,-58.3 -52,-124.3 -43.5,-197 9.2,-77.7 54.5,-139.9 127.7,-175.3 47,-22.7 103.7,-33.8 163.1,-33.8 52.7,0 107.6,8.7 159.5,25.7 6.3,0.3 12.7,1.6 18.8,4.1 4.8,2 9.1,4.5 13,7.4 24.5,9.9 48.1,21.7 70.3,35.4 348.8,215.3 559.6,671.6 536.9,1162.4 -3.7,80.8 -20.8,174.9 -45,277.4 -36.8,-6.2 -73.7,-11.9 -110.6,-17.3 23.9,-99.6 40.7,-190.1 44.2,-265.2"
         style="fill:#0f1424;fill-opacity:1;fill-rule:nonzero;stroke:none"
         id="path14" />
      <path
         d="m 21153.2,12104.3 c -145.7,352.4 -312.1,718.3 -541.8,1006 -124.1,155.4 -257.3,274.3 -396,353.5 -201.6,115.1 -474.3,54.4 -620.7,-138.1 -204.8,-269.4 -74.9,-637.7 20.8,-833.3 95.4,-194.9 221.2,-373.8 342.9,-546.8 67.8,-96.5 138.1,-196.3 201.5,-297 213.8,-339.1 303.8,-634.4 275.3,-902.8 -35.2,-331.2 -263.1,-648.9 -609.7,-849.69 -340.8,-197.43 -748.5,-263.18 -1065.6,-298.39 -174.2,-19.36 -350,-32.61 -525.9,-39.64 -12.3,-37.96 -25.2,-75.65 -38.9,-113.06 193,6.62 386.1,20.63 577.1,41.85 328,36.41 750.5,104.86 1109.3,312.72 377.2,218.51 625.7,567.91 664.6,934.51 31.3,294.3 -64.2,612.9 -291.8,974 -65,103.1 -136,204 -204.7,301.7 -119.2,169.4 -242.4,344.6 -333.9,531.6 -84.4,172.5 -200.8,495 -32.2,716.8 113.3,148.9 322.6,196.6 476.6,108.7 126.4,-72.1 248.9,-181.9 364.1,-326.2 221,-276.9 383.4,-634.1 525.9,-979 247.7,-599.4 317.8,-1148.6 208.3,-1632.1 -99.3,-438.57 -362.8,-850.54 -742,-1160.02 -344.4,-281.05 -785.2,-479.38 -1274.6,-573.58 -439.1,-84.5 -991.6,-56.6 -1457,-26.9 -25.7,-36.1 -52,-71.7 -79.1,-106.7 254.3,-16.5 538.6,-34.2 820.1,-34.2 256.4,0 510.3,14.6 737,58.3 507.6,97.6 965.5,304 1324.1,596.63 398.4,325.17 675.6,759.09 780.3,1221.87 114.7,506.4 42.6,1078.1 -214,1699.3"
         style="fill:#0f1424;fill-opacity:1;fill-rule:nonzero;stroke:none"
         id="path16" />
      <path
         d="m 18195.1,9445.02 c 13.7,37.41 26.6,75.1 38.9,113.06 45.4,140.59 80.9,284.87 105.7,432.08 70.7,419.84 42.5,835.74 -64,1230.54 -258.8,959.7 -979.9,1794.2 -1867.6,2255.2 -1191,618.4 -2627.2,635 -3923.2,287.1 -1296,-347.9 -2475,-1032.6 -3594.6,-1772.3 -402.95,-266.2 -853.84,-551.7 -1319.98,-559.8 -258.01,649.2 -691.71,1689.5 -839.77,1738.9 -198.24,66.1 -690.61,-439.6 -1166.18,-1126.9 -384.01,28.3 -774.12,-15 -1142.72,-126.7 -473.34,493.4 -907.06,814.9 -1070.54,737.5 -203.62,-96.4 -750.26,-2314.1 -761.45,-2359.6 -358.18,-831.38 -312.41,-1809.5 154.85,-2649.6 332.06,-597 820.7,-1019.8 1389.62,-1309.6 33.15,-16.9 66.6,-33.4 100.29,-49.3 362.1,-171.9 753.93,-292.6 1156.8,-372 52.43,-10.3 105.05,-20 157.81,-28.9 383.26,-65.1 774.18,-94.6 1156.92,-96.9 196.14,177.2 325.65,440.9 339,720.6 11.73,245.4 -117.07,439.9 -253.44,645.8 -138.03,208.5 -280.77,424 -266.42,696.6 27.57,523.6 503.08,1019.7 936.54,1220.69 27.8,12.96 61.06,0.84 74.05,-27.15 12.96,-27.95 0.82,-61.09 -27.15,-74.04 -409.52,-189.9 -847.7,-662.7 -872.04,-1125.4 -12.4,-235.8 114.11,-426.8 248.03,-629.1 140.27,-211.8 285.33,-430.8 271.87,-712.7 -12.8,-268.2 -122.56,-523.2 -293.57,-714.8 86.12,1.1 171.69,3.5 256.56,7.2 338.99,14.7 676.65,49.5 1012,100.7 19.35,27.4 37.98,55.3 55.78,83.8 16.37,26.1 50.82,34.1 76.86,17.7 26.15,-16.3 34.07,-50.7 17.76,-76.8 -0.16,-0.3 -0.33,-0.5 -0.49,-0.8 426.02,71.2 848.03,167.8 1263.96,282 1142.15,313.6 2258.55,757.5 3436.35,882.6 419.1,44.5 843.6,48.3 1266.4,59.2 48.3,1.3 96.6,2.6 144.8,4.1 320.4,10 639.4,27.3 953.9,72.7 36.9,5.4 73.8,11.1 110.6,17.3 138.1,23 275.3,52 411.2,88.8 182,49.1 359.2,114 529.9,192.8 -146.4,213.6 -366.7,365.6 -611,416.6 -106.6,22.2 -214.3,27.2 -328.4,32.5 -129,6.1 -262.5,12.3 -393.4,45.9 -272.4,70 -522,231.1 -702.9,453.5 -216.4,266.1 -318,607.42 -407.7,908.54 -8.8,29.53 8,60.6 37.5,69.4 29.5,8.82 60.6,-7.98 69.4,-37.53 86.7,-291.15 185,-621.21 387.3,-870.01 166,-204.1 394.8,-351.7 644.2,-415.8 119.7,-30.8 241.7,-36.5 370.8,-42.5 113.4,-5.3 230.6,-10.8 346,-34.8 277.7,-58 527.3,-232.5 689.8,-476.9 352.8,177.1 675.1,414.7 949.4,697.8 l -1.6,107.8 c -0.4,30.8 24.2,56.2 55,56.6 28,-0.5 51.3,-19.9 55.8,-46.4 51,57.7 100.1,117.1 147.1,178.1 27.1,35 53.4,70.6 79.1,106.7 170.1,239 309.3,499.69 410.3,775.92"
         style="fill:#f8a37d;fill-opacity:1;fill-rule:nonzero;stroke:none"
         id="path18" />
      <path
         d="m 3080.25,11204.3 10.21,-0.9 c 26.36,0 49.81,18.8 54.8,45.6 58.69,316.7 192.77,740.6 299.65,1035.9 117.3,-79.5 397.86,-271.7 728.96,-514.8 24.84,-18.3 59.76,-12.9 77.98,11.9 18.22,24.9 12.88,59.8 -11.96,78 -438.14,321.7 -788.47,555 -791.96,557.3 -14.17,9.5 -31.81,11.9 -48.1,6.6 -16.21,-5.2 -29.11,-17.6 -35.05,-33.5 -111.51,-299.5 -264.65,-772.7 -329.23,-1121.1 -5.61,-30.2 14.41,-59.4 44.7,-65"
         style="fill:#0f1424;fill-opacity:1;fill-rule:nonzero;stroke:none"
         id="path20" />
      <path
         d="m 5948.07,12151.1 c 22.53,-21 57.88,-19.7 78.82,2.9 279.58,300.9 519.07,542.4 619.37,642.5 160.43,-270.1 371.69,-661.2 488.78,-961.2 8.61,-22.1 29.66,-35.5 51.99,-35.5 6.73,0 13.59,1.2 20.27,3.8 28.68,11.2 42.87,43.6 31.67,72.3 -128.82,329.9 -368.06,766 -533.79,1039.2 -8.83,14.6 -23.84,24.3 -40.75,26.4 -16.75,2.3 -33.83,-3.6 -46,-15.5 -2.99,-2.9 -303.3,-297.9 -673.24,-696.1 -20.97,-22.6 -19.7,-57.9 2.88,-78.8"
         style="fill:#0f1424;fill-opacity:1;fill-rule:nonzero;stroke:none"
         id="path22" />
      <path
         d="m 4679.96,11064.7 c -76.69,-5.3 -134.04,-80.1 -128.13,-167.1 5.9,-87.1 72.85,-153.5 149.54,-148.3 76.66,5.2 134.04,80 128.13,167.1 -5.91,87.1 -72.87,153.5 -149.54,148.3"
         style="fill:#0f1424;fill-opacity:1;fill-rule:nonzero;stroke:none"
         id="path24" />
      <path
         d="m 5741.92,11136.7 c -76.68,-5.2 -134.04,-80 -128.13,-167 5.92,-87.1 72.86,-153.5 149.54,-148.3 76.67,5.2 134.03,80 128.12,167.1 -5.91,87.1 -72.86,153.4 -149.53,148.2"
         style="fill:#0f1424;fill-opacity:1;fill-rule:nonzero;stroke:none"
         id="path26" />
      <path
         d="m 5790.51,10158.8 c -30.33,2.1 -57.16,-21.6 -58.96,-52.4 -1.61,-26.8 -24.52,-56 -62.84,-80.2 -75.65,-47.65 -182.61,-61.07 -254.33,-31.88 -58.5,23.78 -83.73,82.98 -90.37,143.88 -0.32,8.7 -0.9,17.3 -1.75,25.9 -1.1,40.3 5.07,79.2 14.23,106.8 1.04,3.2 1.77,6.3 2.23,9.4 7.71,7.4 15.34,14.8 22.84,22.4 30.56,30.7 60.14,63.9 75.43,103.9 15.3,40 13.81,88.6 -13.9,121.5 l -12.34,12.3 c -22.47,18.8 -52.74,28.4 -82.36,33.5 -52.47,9 -107.02,6.5 -158.46,-7.3 -35.04,-9.4 -69.75,-24.7 -93.61,-51.5 -71.78,-80.6 16,-177.8 100.01,-235.2 0.6,-6.6 2.38,-13.2 5.46,-19.5 12.83,-26.1 24.19,-63.8 28.54,-103.9 0.32,-8.6 0.91,-17.3 1.78,-25.9 1.63,-61.2 -15.38,-123.3 -70.11,-154.77 -67.14,-38.59 -174.96,-39.82 -256.29,-2.78 -41.29,18.77 -67.95,44.65 -73.15,71.05 -5.97,30.2 -35.27,50.1 -65.53,43.9 -30.21,-6 -49.88,-35.3 -43.91,-65.5 12.42,-63.01 60.87,-116.64 136.4,-150.98 53.84,-24.52 115.35,-36.66 175.51,-36.66 66.51,0 131.41,14.84 182.59,44.28 35.77,20.58 62.76,47.44 82.45,78.12 23.66,-27.74 54.04,-50.72 92.26,-66.27 38.46,-15.63 82.64,-23.23 128.39,-23.23 78.22,0.03 161.02,22.17 227.48,64.08 70.18,44.27 110.9,103.96 114.69,167.96 1.82,30.8 -21.63,57.2 -52.38,59"
         style="fill:#0f1424;fill-opacity:1;fill-rule:nonzero;stroke:none"
         id="path28" />
      <path
         d="M 7499.62,11104.9 6177.7,10592.4 c -28.73,-11.1 -42.98,-43.4 -31.87,-72.1 8.58,-22.2 29.69,-35.7 52.02,-35.7 6.73,0 13.54,1.2 20.16,3.8 l 1321.92,512.5 c 28.73,11.1 42.98,43.4 31.87,72.1 -11.2,28.8 -43.63,43.1 -72.18,31.9"
         style="fill:#0f1424;fill-opacity:1;fill-rule:nonzero;stroke:none"
         id="path30" />
      <path
         d="m 7644.84,10626.8 -1454.66,-201.9 c -30.51,-4.2 -51.81,-32.4 -47.59,-62.9 3.89,-27.9 27.78,-48.1 55.18,-48.1 l 7.76,0.5 1454.67,201.9 c 30.5,4.3 51.81,32.4 47.59,62.9 -4.26,30.5 -32.36,51.9 -62.95,47.6"
         style="fill:#0f1424;fill-opacity:1;fill-rule:nonzero;stroke:none"
         id="path32" />
      <path
         d="m 7645.47,10076.4 -1437.65,169.7 c -30.37,3.7 -58.31,-18.2 -61.93,-48.9 -3.6,-30.6 18.27,-58.3 48.86,-61.9 l 1437.64,-169.68 6.62,-0.39 c 27.87,0 51.97,20.87 55.32,49.27 3.59,30.6 -18.28,58.3 -48.86,61.9"
         style="fill:#0f1424;fill-opacity:1;fill-rule:nonzero;stroke:none"
         id="path34" />
      <path
         d="m 2939.3,10628.7 c -6.38,-30.1 12.91,-59.7 43.06,-66.1 l 1387.15,-293.1 11.57,-1.2 c 25.8,0 48.98,18 54.53,44.3 6.37,30.1 -12.91,59.7 -43.06,66.1 l -1387.15,293.1 c -30.18,6.4 -59.72,-12.9 -66.1,-43.1"
         style="fill:#0f1424;fill-opacity:1;fill-rule:nonzero;stroke:none"
         id="path36" />
      <path
         d="m 4429.65,10178.4 c -0.71,30.8 -25.85,56.3 -57.09,54.4 L 2904.35,10198 c -30.77,-0.7 -55.14,-26.3 -54.41,-57 0.7,-30.4 25.52,-54.5 55.72,-54.5 h 1.37 l 1468.2,34.8 c 30.77,0.7 55.15,26.3 54.42,57.1"
         style="fill:#0f1424;fill-opacity:1;fill-rule:nonzero;stroke:none"
         id="path38" />
      <path
         d="m 4436.89,10036.4 c -8.52,29.6 -39.57,46.8 -68.99,38.2 L 2976.29,9675.86 c -29.61,-8.5 -46.74,-39.39 -38.27,-69 7.03,-24.48 29.33,-40.44 53.6,-40.44 5.09,0 10.27,0.71 15.39,2.18 l 1391.62,398.79 c 29.6,8.5 46.73,39.41 38.26,69.01"
         style="fill:#0f1424;fill-opacity:1;fill-rule:nonzero;stroke:none"
         id="path40" />
      <path
         d="m 17502.8,8430.7 c -30.8,-0.4 -55.4,-25.8 -55,-56.6 l 1.6,-107.8 12.9,-892.5 c -4.9,-451.4 -218.3,-857 -543.7,-1033.2 -2.7,-1.4 -5.4,-2.8 -8.1,-4.2 -11.8,75.8 20.2,159.2 82.6,204 25,18 30.7,52.8 12.8,77.8 -18,25.1 -52.9,30.8 -77.8,12.8 -102.1,-73.3 -150.7,-207.7 -124.6,-329.1 -28.6,-4.9 -57.6,-6.8 -85.4,-5.7 -0.6,3.7 -1.7,7.4 -3.1,11.1 -36.7,91 -2.8,206.9 77.2,263.7 25.1,17.9 31,52.7 13.1,77.8 -17.8,25.1 -52.6,31 -77.8,13.1 -104,-74 -155.7,-208.6 -134,-332.8 -34.1,20.9 -51.8,49.7 -54.1,87.8 -2.7,43.8 19.7,89.8 43.5,138.5 l 12.6,26.2 c 125.5,266.1 117.1,580.3 -23.2,861.9 -21.6,43.4 -45.8,85.1 -72.3,125 -162.5,244.4 -412.1,418.9 -689.8,476.9 -115.4,24 -232.6,29.5 -346,34.8 -129.1,6 -251.1,11.7 -370.8,42.5 -249.4,64.1 -478.2,211.7 -644.2,415.8 -202.3,248.8 -300.6,578.86 -387.3,870.01 -8.8,29.55 -39.9,46.35 -69.4,37.53 -29.5,-8.8 -46.3,-39.87 -37.5,-69.4 89.7,-301.12 191.3,-642.44 407.7,-908.54 180.9,-222.4 430.5,-383.5 702.9,-453.5 130.9,-33.6 264.4,-39.8 393.4,-45.9 114.1,-5.3 221.8,-10.3 328.4,-32.5 244.3,-51 464.6,-203 611,-416.6 27.4,-39.9 52.2,-81.9 74,-125.9 126.8,-254.5 134.7,-526 22.2,-764.5 l -12,-24.9 c -27.7,-56.8 -59,-121 -54.6,-194.1 4.7,-78.1 46.4,-142.8 117.5,-182.3 52.7,-29.3 119.3,-43.7 188.7,-43.7 81.1,0 166,19.6 237.5,58.3 360.5,195.2 596.8,638.8 602.1,1131.5 l -14.4,1001.7 c 0,3 -0.3,5.8 -0.8,8.6 -4.5,26.5 -27.8,45.9 -55.8,46.4"
         style="fill:#0f1424;fill-opacity:1;fill-rule:nonzero;stroke:none"
         id="path42" />
      <path
         d="m 8264.02,5997.7 c -26.04,16.4 -60.49,8.4 -76.86,-17.7 -17.8,-28.5 -36.43,-56.4 -55.78,-83.8 -426.81,-604.3 -1214.91,-942.7 -1619.88,-821.7 -8.2,2.4 -16.37,5.2 -24.51,8.4 69.1,49.2 165.35,62.5 242.84,28 28.24,-12.5 61.09,0.2 73.64,28.3 12.5,28.2 -0.19,61.1 -28.32,73.7 -130.37,57.9 -290.58,26.5 -392.05,-71.6 -29.47,22.4 -55.86,48.1 -77.08,75.3 5.69,3.4 10.88,7.9 15.21,13.5 65.78,84.5 193.65,116.2 291.4,72 27.94,-12.8 61.09,-0.3 73.81,27.8 12.72,28 0.3,61 -27.78,73.8 -134.89,61.1 -302.92,26.1 -404.24,-80.5 -6.45,38.1 2.89,70.8 28.35,99.4 31.63,35.5 83.43,53.3 138.28,72.2 l 29.15,10.1 c 157.69,56.4 298.73,155.8 412.62,283.4 171.01,191.6 280.77,446.6 293.57,714.8 13.46,281.9 -131.6,500.9 -271.87,712.7 -133.92,202.3 -260.43,393.3 -248.03,629.1 24.34,462.7 462.52,935.5 872.04,1125.4 27.97,12.95 40.11,46.09 27.15,74.04 -12.99,27.99 -46.25,40.11 -74.05,27.15 -433.46,-200.99 -908.97,-697.09 -936.54,-1220.69 -14.35,-272.6 128.39,-488.1 266.42,-696.6 136.37,-205.9 265.17,-400.4 253.44,-645.8 -13.35,-279.7 -142.86,-543.4 -339,-720.6 -86.27,-78 -185.42,-139.3 -293.29,-177.9 l -27.83,-9.6 c -62.97,-21.6 -134.36,-46.1 -185.42,-103.5 -54.36,-61.2 -71.5,-140 -48.24,-221.9 37.01,-130.3 178.18,-262.4 328.36,-307.3 61.33,-18.3 130.54,-27.2 205.57,-27.2 487.79,0 1218.75,376.5 1596.19,979.7 0.16,0.3 0.33,0.5 0.49,0.8 16.31,26.1 8.39,60.5 -17.76,76.8"
         style="fill:#0f1424;fill-opacity:1;fill-rule:nonzero;stroke:none"
         id="path44" />
      <path
         d="m 17984.7,10874.4 13.3,1.6 c 29.9,7.3 48.3,37.4 41,67.4 -295.4,1217.8 -1184.7,2160.2 -2378.9,2520.7 -29.3,8.8 -60.6,-7.8 -69.5,-37.3 -8.9,-29.5 7.8,-60.6 37.3,-69.5 1155.9,-349 2016.7,-1261.2 2302.7,-2440.2 6.2,-25.6 29,-42.7 54.1,-42.7"
         style="fill:#0f1424;fill-opacity:1;fill-rule:nonzero;stroke:none"
         id="path46" />
      <path
         d="m 5632.93,8666.8 c 15.41,26.6 6.32,60.8 -20.35,76.2 -26.69,15.5 -60.79,6.3 -76.23,-20.3 -59.76,-103.3 -141.71,-114.8 -184.82,-112.8 -64.45,3.2 -132.13,49.3 -157.46,107.2 -12.36,28.2 -45.23,41.1 -73.45,28.7 -28.24,-12.4 -41.1,-45.2 -28.73,-73.5 42.43,-96.9 146.88,-168.4 253.97,-173.8 5.2,-0.3 10.38,-0.4 15.5,-0.4 110.82,0 209.14,60.8 271.57,168.7"
         style="fill:#0f1424;fill-opacity:1;fill-rule:nonzero;stroke:none"
         id="path48" />
    </g>
  </g>
</svg>
