<?xml version="1.0" encoding="UTF-8" standalone="no"?>
<!-- Created with Inkscape (http://www.inkscape.org/) -->

<svg
   version="1.1"
   id="svg2"
   width="2829.3333"
   height="2829.3333"
   viewBox="0 0 2829.3333 2829.3333"
   sodipodi:docname="251bae16-cb5f-4392-9773-c1f0f0aa8705.eps"
   xmlns:inkscape="http://www.inkscape.org/namespaces/inkscape"
   xmlns:sodipodi="http://sodipodi.sourceforge.net/DTD/sodipodi-0.dtd"
   xmlns="http://www.w3.org/2000/svg"
   xmlns:svg="http://www.w3.org/2000/svg">
  <defs
     id="defs6" />
  <sodipodi:namedview
     id="namedview4"
     pagecolor="#ffffff"
     bordercolor="#000000"
     borderopacity="0.25"
     inkscape:showpageshadow="2"
     inkscape:pageopacity="0.0"
     inkscape:pagecheckerboard="0"
     inkscape:deskcolor="#d1d1d1" />
  <g
     id="g8"
     inkscape:groupmode="layer"
     inkscape:label="ink_ext_XXXXXX"
     transform="matrix(1.3333333,0,0,-1.3333333,0,2829.3333)">
    <g
       id="g10"
       transform="scale(0.1)">
      <path
         d="m 12763.3,4990 c -238.5,-311.4 -871.8,-1138.8 -1360.8,-979 -26.3,8.6 -50.7,20.6 -72.7,35.4 -2,1.7 -4.2,3.2 -6.5,4.5 -70.8,50.4 -114.7,129.9 -112.8,213.4 0.7,27.5 -21.2,50.3 -48.7,51 -27.6,2 -50.4,-21.2 -51,-48.7 -2,-85 29.3,-166.6 83.8,-231.5 -97.3,-13.2 -178.9,7.9 -239,62.7 -70.5,64.2 -95.2,161 -82.7,219.6 5.8,26.9 -11.4,53.5 -38.3,59.2 -26.9,5.8 -53.5,-11.4 -59.2,-38.3 -14.7,-68.5 0.3,-168.9 60.4,-254.6 -115.1,29.2 -218.8,109.7 -263.4,213.6 -75.1,174.7 51.3,360.5 169.9,502.8 74.4,89.5 160.9,172.2 244.5,252.2 40.1,38.3 80.1,76.6 119.1,115.8 74.3,74.5 151.8,154.9 212.7,247.4 31.4,47.7 68.1,111.7 73.6,184.3 7.4,97.6 -39.9,181.7 -93.7,257 -37.6,-5.2 -75.2,-10.2 -112.9,-15 57,-75.5 113.3,-153.6 107.1,-234.5 -3.7,-49.4 -31.1,-97 -57.4,-136.9 -55.8,-84.7 -129.4,-161 -200.1,-231.9 -38.5,-38.6 -77.9,-76.4 -117.4,-114.1 -85.6,-81.9 -174.1,-166.6 -252.2,-260.4 -126.1,-151.5 -282.5,-379.1 -184.9,-606.1 72.7,-169.1 257.9,-285.9 447.9,-285.9 9.2,0 18.5,0.3 27.8,0.9 1.7,0.1 3.4,0.3 5,0.5 45,-23.2 104.4,-41.7 179.9,-41.7 44.1,0 93.7,6.3 149,21.6 25.1,-15.2 52.3,-27.7 81.2,-37.2 53.3,-17.4 107.4,-25.4 161.9,-25.4 513.7,0 1061.6,715.4 1309.1,1038.6 339.2,442.9 573.4,955.1 680.6,1486.4 -37,-14.7 -74,-29.2 -111.2,-43.3 -109.5,-493.9 -332.1,-969.1 -648.6,-1382.4"
         style="fill:#0f1424;fill-opacity:1;fill-rule:nonzero;stroke:none"
         id="path12" />
      <path
         d="m 16326.9,11343.1 c 194.1,221.2 377.4,430.1 432.7,596.8 263.2,793 -163.1,1463.9 -575.4,2112.6 -306.8,482.8 -624,982.1 -651,1525.7 -25.6,516.2 214.7,1030.4 627.3,1341.8 412.5,311.4 972.9,401.7 1462.4,235.4 495.2,-168.1 916.7,-590.8 1156.4,-1159.6 189.9,-450.7 273,-983.3 261.6,-1676.2 -13,-790.9 -199.6,-2733.8 -1647.7,-3691.9 -219.1,-145 -697,-394.2 -1080.2,-465.5 3.1,-33.1 5.5,-66.2 7.3,-99.3 442.6,79.4 971.2,377.8 1128,481.5 1047.5,693.1 1664.3,2068.5 1692.4,3773.5 11.6,707.3 -74,1252.8 -269.5,1716.7 -250.7,595.1 -694,1038 -1216.2,1215.3 -520.3,176.6 -1116,80.8 -1554.6,-250.3 -438.6,-331 -694.1,-877.6 -666.9,-1426.4 28.4,-569.9 352.8,-1080.4 666.5,-1574.2 418.2,-658 813.1,-1279.6 564.9,-2027.6 -49,-147.6 -225.8,-349.1 -413,-562.4 -80.1,-91.4 -163,-185.9 -240.3,-281.3 17.8,-31.9 34.7,-63.8 50.9,-95.9 83.4,105 175.7,210.2 264.4,311.3"
         style="fill:#0f1424;fill-opacity:1;fill-rule:nonzero;stroke:none"
         id="path14" />
      <path
         d="m 2786.63,9391.1 c 410.7,-705.7 983.16,-1336 1640.85,-1859.3 36.14,-28.7 72.54,-57.2 109.19,-85.3 533.45,-409.1 1118.75,-748.6 1716.74,-1002.2 -116.17,274.2 -190.27,569.8 -218.46,876.8 -51.21,557.6 51.77,1105.6 297.81,1584.8 12.59,24.5 42.65,34.2 67.16,21.6 24.53,-12.6 34.2,-42.6 21.61,-67.1 -233.98,-455.8 -335.99,-999.2 -287.24,-1530.2 30.53,-332.2 116.59,-650.5 253.03,-941.1 5.18,-2.1 10.36,-4.2 15.54,-6.3 723.35,-288.4 1482.53,-471.9 2254.9,-562.1 91.89,226 159.7,459.9 201.33,697.2 4.75,27.1 30.45,45.4 57.75,40.5 27.14,-4.7 45.29,-30.6 40.52,-57.7 -41.24,-235.1 -107.45,-467 -196.68,-691.4 803.6,-85.1 1620.32,-69.9 2424.92,32.5 37.7,4.8 75.3,9.8 112.9,15 264.2,36.4 527,82.1 787.4,136.7 449.6,94.4 896.6,215.9 1326,378.9 37.2,14.1 74.2,28.6 111.2,43.3 35.1,14.1 70,28.4 104.9,43 -112.7,270.1 -184.7,560.7 -212.4,862.4 -51.3,557.6 51.7,1105.6 297.8,1584.8 30.4,59.2 63.4,118 98.2,174.8 14.4,23.5 45.1,30.8 68.6,16.5 23.5,-14.4 30.8,-45.1 16.5,-68.7 -33.5,-54.6 -65.3,-111.2 -94.5,-168.1 -234,-455.8 -336,-999.2 -287.3,-1530.2 26.8,-291.2 96.2,-571.7 204.8,-832.2 271.7,119 534.7,256.8 784.7,417.3 781.1,501.5 1446.1,1322.3 1704.5,2219.4 -302,1227.9 -998.6,2122.6 -1945.9,2458.7 -26,9.3 -39.5,37.8 -30.3,63.7 9.2,26 37.6,39.6 63.7,30.4 933.6,-331.3 1630.9,-1182.8 1962.9,-2353.4 52.2,240.3 74.3,484.8 61,728.8 -1.8,33.1 -4.2,66.2 -7.3,99.3 -27.8,294 -108.1,586.5 -250.5,869.6 -16.2,32.1 -33.1,64 -50.9,95.9 -45,80.7 -95.2,160.6 -150.9,239.4 -606.1,858.2 -1721.9,1218.1 -2772.2,1240.2 -1050.4,22.1 -2084.3,-235.3 -3128.37,-352.3 -753.26,-84.4 -1603.85,-63.2 -2149.23,463.2 -200.51,193.5 -341.41,433.6 -477.95,678.2 h 0.02 c -181.46,761.1 -613.07,1569.7 -1040.66,2199.7 -42.96,63.2 -103.6,133.5 -179.24,122.1 -56.19,-8.5 -94.61,-59.7 -125.33,-107.5 -141.44,-220.1 -254.58,-458.3 -336.86,-706.7 -512.86,156.3 -1065.11,156.4 -1573.34,-2.5 -81.03,234.3 -189.63,459.1 -323.65,667.7 -30.72,47.8 -69.14,99 -125.33,107.5 -75.64,11.4 -136.28,-58.9 -179.24,-122.2 -422.74,-622.8 -742.45,-1315.3 -942.34,-2041 -647.35,-1282.8 -429.38,-2904.2 279.65,-4122.4"
         style="fill:#a47343;fill-opacity:1;fill-rule:nonzero;stroke:none"
         id="path16" />
      <path
         d="m 4754.2,13200.5 c -0.06,-14.3 -0.2,-27.9 -0.35,-41 -0.36,-35.9 -0.7,-69 1.05,-99.6 -3.31,-57.5 -15.51,-82.5 -51.25,-105.4 -38.47,-24.6 -97.83,-25.4 -141.15,-1.7 -21.46,11.7 -47.06,34.2 -47.06,74.7 0,27.6 -22.34,49.9 -49.89,49.9 -27.55,0 -49.89,-22.3 -49.89,-49.9 0,-68.7 36.08,-127.8 98.97,-162.2 36.25,-19.9 77.49,-29.7 118.27,-29.7 44.44,0 88.33,11.7 124.58,34.9 19.12,12.3 34.59,25.3 47.09,39.4 12.26,-14.2 27.41,-27.4 46.15,-39.4 36.7,-23.5 80.65,-35.5 124.82,-35.5 35.1,0 70.35,7.6 102.26,22.9 65.02,31.2 106.75,91.1 114.49,164.4 2.9,27.4 -16.97,51.9 -44.38,54.8 -27.45,2.8 -51.96,-16.9 -54.86,-44.3 -5.24,-49.5 -34.66,-73.5 -58.44,-84.9 -40.25,-19.4 -93.71,-16.6 -130.06,6.6 -34.47,22.1 -46.24,49 -49.8,105.4 1.64,32.5 0.94,68.8 0.15,109.6 l -0.5,31 c 20.4,12.3 40.37,25 59.87,38.1 37.47,25.2 74.02,52.6 94.71,87 20.68,34.3 22.76,77.1 -6.48,107.8 -3.98,4.2 -8.42,8 -13.23,11.6 -24.33,17.9 -58.34,28.2 -91.96,34.4 -59.54,11.1 -122.38,12.2 -182.53,3.1 -40.97,-6.2 -82.02,-17.7 -111.5,-39.8 -106.75,-80.2 49.95,-195.5 150.92,-242.2"
         style="fill:#0f1424;fill-opacity:1;fill-rule:nonzero;stroke:none"
         id="path18" />
      <path
         d="m 3823.33,13913.9 c -26.21,-8.5 -40.53,-36.6 -32.03,-62.8 8.55,-26.2 36.64,-40.6 62.87,-32.1 230.55,75 495.74,33.5 692.3,-108.2 8.85,-6.4 19.03,-9.4 29.14,-9.4 15.49,0 30.77,7.1 40.51,20.7 16.13,22.3 11.06,53.5 -11.28,69.6 -221.9,160 -521.34,206.8 -781.51,122.2"
         style="fill:#0f1424;fill-opacity:1;fill-rule:nonzero;stroke:none"
         id="path20" />
      <path
         d="m 5095.66,13701.4 c 10.11,0 20.29,3 29.13,9.4 196.57,141.7 461.85,183.2 692.33,108.2 26.26,-8.5 54.35,5.9 62.87,32.1 8.5,26.2 -5.82,54.3 -32.03,62.8 -260.22,84.6 -559.64,37.8 -781.53,-122.2 -22.35,-16.1 -27.41,-47.3 -11.28,-69.6 9.74,-13.6 25.02,-20.7 40.51,-20.7"
         style="fill:#0f1424;fill-opacity:1;fill-rule:nonzero;stroke:none"
         id="path22" />
      <path
         d="m 5519.26,13375.2 c 5.78,0 11.64,1 17.37,3.2 320.95,119.2 663.73,153.2 991.4,98.4 27.53,-4.5 52.89,13.8 57.44,41 4.56,27.1 -13.81,52.8 -40.97,57.4 -344.83,57.7 -705.29,21.9 -1042.61,-103.3 -25.82,-9.6 -39,-38.3 -29.4,-64.1 7.48,-20.1 26.53,-32.6 46.77,-32.6"
         style="fill:#0f1424;fill-opacity:1;fill-rule:nonzero;stroke:none"
         id="path24" />
      <path
         d="m 5466.45,13303.8 c 3.85,-27.3 29.23,-46.3 56.37,-42.4 305.77,43.1 628.74,2.2 909.25,-115 6.29,-2.7 12.82,-3.9 19.23,-3.9 19.51,0 38.05,11.5 46.06,30.6 10.62,25.5 -1.36,54.7 -26.8,65.3 -296.83,124.1 -638.36,167.3 -961.68,121.8 -27.28,-3.9 -46.28,-29.1 -42.43,-56.4"
         style="fill:#0f1424;fill-opacity:1;fill-rule:nonzero;stroke:none"
         id="path26" />
      <path
         d="m 5500.38,13127 c 300.52,-77.4 592.25,-210.1 843.66,-383.8 8.64,-6 18.54,-8.8 28.3,-8.8 15.83,0 31.43,7.5 41.1,21.5 15.66,22.7 9.99,53.8 -12.69,69.4 -260.98,180.2 -563.7,318 -875.47,398.3 -26.7,6.9 -53.86,-9.1 -60.75,-35.8 -6.87,-26.7 9.18,-53.9 35.85,-60.8"
         style="fill:#0f1424;fill-opacity:1;fill-rule:nonzero;stroke:none"
         id="path28" />
      <path
         d="m 4071.59,13378.4 c 5.73,-2.2 11.6,-3.2 17.37,-3.2 20.25,0 39.32,12.5 46.77,32.6 9.6,25.8 -3.58,54.5 -29.4,64.1 -337.27,125.3 -697.76,161 -1042.61,103.3 -27.16,-4.6 -45.53,-30.3 -40.97,-57.4 4.55,-27.2 30.33,-45.5 57.44,-41 327.55,54.7 670.43,20.7 991.4,-98.4"
         style="fill:#0f1424;fill-opacity:1;fill-rule:nonzero;stroke:none"
         id="path30" />
      <path
         d="m 4085.38,13261.4 c 27.16,-4.1 52.52,15.1 56.37,42.4 3.85,27.3 -15.15,52.5 -42.44,56.4 -323.26,45.5 -664.85,2.3 -961.68,-121.8 -25.43,-10.6 -37.42,-39.8 -26.79,-65.3 8.01,-19.1 26.55,-30.6 46.06,-30.6 6.41,0 12.94,1.2 19.22,3.9 280.49,117.3 603.39,158.2 909.26,115"
         style="fill:#0f1424;fill-opacity:1;fill-rule:nonzero;stroke:none"
         id="path32" />
      <path
         d="m 4147.67,13187.8 c -6.87,26.7 -34.18,42.7 -60.76,35.8 -311.76,-80.3 -614.49,-218.1 -875.46,-398.3 -22.69,-15.6 -28.36,-46.7 -12.7,-69.4 9.68,-14 25.27,-21.5 41.1,-21.5 9.77,0 19.66,2.9 28.31,8.8 251.4,173.7 543.14,306.4 843.65,383.8 26.68,6.9 42.73,34.1 35.86,60.8"
         style="fill:#0f1424;fill-opacity:1;fill-rule:nonzero;stroke:none"
         id="path34" />
      <path
         d="m 4048.47,14540.4 c 7.51,-20 26.53,-32.4 46.73,-32.4 5.82,0 11.74,1.1 17.51,3.2 25.8,9.7 38.88,38.4 29.21,64.2 -102.61,273.9 -234.89,537.4 -393.13,783.2 -14.88,23.2 -45.85,29.9 -68.94,15 -23.19,-14.9 -29.86,-45.8 -14.96,-69 154.42,-239.9 283.48,-497 383.58,-764.2"
         style="fill:#0f1424;fill-opacity:1;fill-rule:nonzero;stroke:none"
         id="path36" />
      <path
         d="m 5771.15,14753.8 c 5.11,-1.7 10.3,-2.5 15.42,-2.5 21.02,0 40.58,13.4 47.45,34.5 80.61,247.9 213.5,483 384.27,680 18.05,20.8 15.81,52.3 -5,70.4 -20.85,18 -52.35,15.8 -70.38,-5 -179.46,-207 -319.07,-454.1 -403.79,-714.6 -8.5,-26.2 5.82,-54.3 32.03,-62.8"
         style="fill:#0f1424;fill-opacity:1;fill-rule:nonzero;stroke:none"
         id="path38" />
      <path
         d="m 6512.59,11358.2 c -837.96,-625.8 -1881.59,-774.5 -2723.88,-387.9 -25.04,11.4 -54.63,0.5 -66.13,-24.6 -11.5,-25 -0.51,-54.6 24.53,-66.1 323.55,-148.5 675.39,-221.2 1034.22,-221.2 611.99,0 1244.27,211.6 1790.94,619.8 340.37,254.2 768.04,683.6 872.74,1286.3 4.7,27.2 -13.47,53 -40.61,57.7 -27.33,4.6 -53.01,-13.5 -57.71,-40.6 -99.08,-570.3 -508.28,-980.1 -834.1,-1223.4"
         style="fill:#0f1424;fill-opacity:1;fill-rule:nonzero;stroke:none"
         id="path40" />
      <path
         d="m 14296.4,11687.5 c -26.1,9.2 -54.5,-4.4 -63.7,-30.4 -9.2,-25.9 4.3,-54.4 30.3,-63.7 947.3,-336.1 1643.9,-1230.8 1945.9,-2458.7 62.5,-254.3 108.2,-522.9 135.6,-803.7 52,-532.9 18.7,-1109 -104.8,-1813.1 -95.7,-545.8 -330,-1074.1 -677.5,-1527.9 -238.5,-311.4 -871.9,-1138.8 -1360.8,-979 -26.3,8.6 -50.7,20.6 -72.7,35.4 -2,1.7 -4.2,3.2 -6.5,4.5 -70.8,50.4 -114.7,129.9 -112.8,213.4 0.7,27.5 -21.1,50.3 -48.7,51 -27.7,2 -50.4,-21.2 -51,-48.7 -2,-85 29.3,-166.6 83.8,-231.5 -97.3,-13.2 -178.9,7.9 -239,62.7 -70.5,64.2 -95.2,161 -82.6,219.6 5.7,26.9 -11.4,53.5 -38.4,59.2 -27,5.8 -53.4,-11.4 -59.2,-38.3 -14.7,-68.5 0.3,-168.9 60.5,-254.7 -115.3,29.2 -218.8,109.8 -263.5,213.7 -75.1,174.7 51.3,360.5 169.9,502.8 74.5,89.5 160.9,172.2 244.5,252.2 40.1,38.3 80.1,76.6 119.2,115.8 74.2,74.5 151.7,154.9 212.6,247.4 31.4,47.7 68.2,111.7 73.6,184.3 9.3,122.1 -67,223 -134.4,312 l -6,7.9 c -133.9,177.2 -244.8,371.5 -331,578.3 -108.6,260.5 -178,541 -204.8,832.2 -48.7,531 53.3,1074.4 287.3,1530.2 29.2,56.9 61,113.5 94.5,168.1 14.3,23.6 7,54.3 -16.5,68.7 -23.5,14.3 -54.2,7 -68.6,-16.5 -34.8,-56.8 -67.8,-115.6 -98.2,-174.8 -246.1,-479.2 -349.1,-1027.2 -297.8,-1584.8 27.7,-301.7 99.7,-592.3 212.4,-862.4 89.4,-214.2 204.3,-415.5 343.1,-599.2 l 6,-7.9 c 59.5,-78.6 121,-159.9 114.6,-244.3 -3.8,-49.4 -31.2,-97 -57.5,-136.9 -55.8,-84.7 -129.4,-161 -200,-231.9 -38.5,-38.6 -78,-76.4 -117.4,-114.1 -85.7,-81.9 -174.2,-166.6 -252.3,-260.4 -126.1,-151.4 -282.5,-379 -184.9,-606.1 72.7,-169.1 258,-285.9 447.9,-285.9 9.3,0 18.5,0.3 27.8,0.9 1.7,0.1 3.4,0.3 5,0.5 45,-23.2 104.5,-41.7 180,-41.7 44.1,0 93.6,6.3 148.9,21.6 25.2,-15.2 52.3,-27.7 81.2,-37.2 53.4,-17.4 107.4,-25.4 161.9,-25.4 513.7,0 1061.6,715.4 1309.1,1038.6 357.2,466.5 598.1,1009.8 696.6,1571.4 125.1,713.2 158.7,1297.9 105.8,1840 -34.3,351 -96.6,683.4 -184.5,993.4 -332,1170.6 -1029.3,2022.1 -1962.9,2353.4"
         style="fill:#0f1424;fill-opacity:1;fill-rule:nonzero;stroke:none"
         id="path42" />
      <path
         d="m 9130.22,6046.7 c 270.26,-64.7 609.21,-99.5 991.18,-99.5 908.3,0 2058.8,197.3 3101.1,659.3 25.2,11.1 36.6,40.6 25.4,65.8 -11.2,25.2 -40.6,36.6 -65.8,25.4 -1460.3,-647.3 -3131.9,-768.6 -4028.64,-553.9 -26.75,6.4 -53.72,-10.1 -60.15,-36.9 -6.4,-26.8 10.11,-53.7 36.91,-60.2"
         style="fill:#0f1424;fill-opacity:1;fill-rule:nonzero;stroke:none"
         id="path44" />
      <path
         d="m 8916.84,6558.4 c -27.3,4.9 -53,-13.4 -57.75,-40.5 -41.63,-237.3 -109.44,-471.2 -201.33,-697.2 -119.52,-293.9 -279.77,-574.2 -476.21,-830.7 -238.46,-311.4 -871.62,-1138.8 -1360.78,-979 -26.25,8.6 -50.6,20.6 -72.55,35.3 -2.11,1.7 -4.36,3.3 -6.72,4.6 -70.75,50.5 -114.61,129.9 -112.69,213.4 0.66,27.5 -21.17,50.3 -48.72,51 -27.72,2 -50.38,-21.2 -51.01,-48.7 -1.98,-85 29.31,-166.6 83.84,-231.5 -97.32,-13.2 -178.9,7.9 -239.07,62.7 -70.47,64.2 -95.15,161 -82.6,219.6 5.74,26.9 -11.4,53.5 -38.35,59.2 -27.01,5.8 -53.47,-11.4 -59.24,-38.3 -14.64,-68.5 0.29,-168.9 60.49,-254.7 -115.24,29.2 -218.78,109.8 -263.49,213.7 -75.13,174.7 51.33,360.5 169.89,502.8 74.55,89.5 161.05,172.3 244.7,252.3 40,38.3 79.98,76.5 118.98,115.7 74.18,74.4 151.72,154.9 212.64,247.4 31.4,47.6 68.14,111.6 73.65,184.3 9.25,122.1 -67.14,223 -134.52,312.1 l -5.93,7.8 c -110.11,145.7 -204.68,303 -282.75,469.4 -136.44,290.6 -222.5,608.9 -253.03,941.1 -48.75,531 53.26,1074.4 287.24,1530.2 12.59,24.5 2.92,54.5 -21.61,67.1 -24.51,12.6 -54.57,2.9 -67.16,-21.6 -246.04,-479.2 -349.02,-1027.2 -297.81,-1584.8 28.19,-307 102.29,-602.6 218.46,-876.8 88.49,-208.8 201.39,-405.2 337.06,-584.8 l 5.97,-7.8 c 59.46,-78.6 120.97,-159.9 114.58,-244.4 -3.75,-49.5 -31.15,-97 -57.46,-136.9 -55.84,-84.8 -129.43,-161 -200.02,-231.9 -38.44,-38.6 -77.86,-76.3 -117.25,-114 -85.68,-81.9 -174.25,-166.7 -252.43,-260.5 -99.67,-119.7 -218.2,-286.9 -215.37,-463.9 -237.12,-175.2 -481,-246 -654.19,-189.6 -26.34,8.7 -50.76,20.7 -72.75,35.5 -2.03,1.6 -4.17,3.1 -6.41,4.4 -70.84,50.4 -114.75,129.9 -112.83,213.4 0.66,27.6 -21.17,50.4 -48.73,51 -27.86,2.9 -50.37,-21.1 -51,-48.7 -1.98,-84.9 29.31,-166.5 83.83,-231.4 -97.31,-13.3 -178.91,7.9 -239.06,62.6 -70.47,64.2 -95.15,161.1 -82.61,219.7 5.75,26.9 -11.39,53.4 -38.34,59.2 -27.02,5.7 -53.47,-11.4 -59.25,-38.3 -14.64,-68.5 0.31,-169 60.55,-254.8 -115.18,29.2 -218.84,109.9 -263.54,213.8 -75.13,174.7 51.33,360.5 169.89,502.8 74.49,89.4 160.95,172.1 244.56,252.1 40.05,38.3 80.07,76.6 119.12,115.8 74.22,74.5 151.79,155 212.69,247.5 31.38,47.6 68.11,111.7 73.59,184.2 9.28,122.1 -67.08,223 -134.47,312.1 l -5.96,7.9 c -286.4,379 -467.68,836.3 -526.91,1327.2 -36.65,28.1 -73.05,56.6 -109.19,85.3 0.32,-3.7 0.63,-7.4 0.97,-11.1 49.67,-541 241.78,-1046.4 555.52,-1461.6 l 6.01,-7.9 c 59.47,-78.6 120.95,-159.9 114.55,-244.4 -3.74,-49.4 -31.14,-96.9 -57.45,-136.9 -55.78,-84.7 -129.4,-161 -200.05,-231.8 -38.49,-38.7 -77.93,-76.4 -117.39,-114.2 -85.63,-81.9 -174.15,-166.6 -252.27,-260.3 -126.12,-151.5 -282.51,-379.1 -184.85,-606.2 72.66,-169 257.93,-285.8 447.84,-285.8 9.28,0 18.56,0.3 27.84,0.8 1.69,0.1 3.35,0.3 4.98,0.6 44.97,-23.3 104.46,-41.8 179.97,-41.8 44.09,0 93.66,6.3 148.96,21.7 25.13,-15.2 52.31,-27.8 81.2,-37.2 48.43,-15.8 101.02,-23.6 156.63,-23.6 166.12,0 358.94,69.1 546.76,198.4 3.54,-10.8 7.64,-21.7 12.32,-32.6 72.67,-169.1 257.93,-285.9 447.84,-285.9 9.29,0 18.56,0.3 27.84,0.9 1.69,0.1 3.35,0.3 4.98,0.5 44.97,-23.2 104.46,-41.7 179.97,-41.7 44.09,0 93.66,6.3 148.96,21.6 25.12,-15.2 52.3,-27.7 81.18,-37.2 53.32,-17.4 107.37,-25.4 161.87,-25.4 513.72,0 1061.58,715.4 1309.11,1038.6 207.66,271.2 376,568.3 499.91,880 89.23,224.4 155.44,456.3 196.68,691.4 4.77,27.1 -13.38,53 -40.52,57.7"
         style="fill:#0f1424;fill-opacity:1;fill-rule:nonzero;stroke:none"
         id="path46" />
      <path
         d="m 2943.94,11642.5 c 9.72,-9.6 22.39,-14.4 35.04,-14.4 12.88,0 25.77,5 35.54,14.9 19.34,19.6 19.1,51.2 -0.52,70.6 -250.84,247.2 -410.91,590.3 -439.17,941.4 -28.25,351 74.89,715.3 282.93,999.5 16.29,22.3 11.45,53.4 -10.77,69.7 -22.24,16.3 -53.45,11.5 -69.72,-10.7 -222,-303.3 -332.04,-692 -301.88,-1066.5 30.14,-374.6 200.93,-740.7 468.55,-1004.5"
         style="fill:#0f1424;fill-opacity:1;fill-rule:nonzero;stroke:none"
         id="path48" />
    </g>
  </g>
</svg>
